<?xml version="1.0" encoding="utf-8"?>
<!-- Generator: Adobe Illustrator 20.0.0, SVG Export Plug-In . SVG Version: 6.00 Build 0)  -->
<svg version="1.1" id="Layer_1" xmlns="http://www.w3.org/2000/svg" xmlns:xlink="http://www.w3.org/1999/xlink" x="0px" y="0px"
	 viewBox="0 0 46.247 26.088" style="enable-background:new 0 0 46.247 26.088;" xml:space="preserve">
<style type="text/css">
	.st0{fill:#9DB5B2;}
	.st1{fill:#DAF0EE;}
</style>
<g id="crown_1_">
	<rect y="14.23" class="st0" width="46.247" height="11.858"/>
	<polygon class="st0" points="5.135,0 10.27,14.23 0,14.23 	"/>
	<polygon class="st0" points="15.404,2.965 20.539,15.712 10.27,15.712 	"/>
	<polygon class="st0" points="23.785,0 28.851,14.23 18.582,14.23 	"/>
	<polygon class="st0" points="31.842,2.965 36.977,15.712 26.707,15.712 	"/>
	<polygon class="st0" points="41.921,0 46.247,14.23 35.601,14.23 	"/>
	<polygon class="st1" points="4.805,12.63 6.487,13.852 5.845,15.83 3.766,15.83 3.123,13.852 	"/>
	<polygon class="st1" points="15.404,12.63 17.087,13.852 16.444,15.83 14.365,15.83 13.722,13.852 	"/>
	<polygon class="st1" points="23.716,12.512 25.399,13.734 24.756,15.712 22.677,15.712 22.034,13.734 	"/>
	<polygon class="st1" points="31.842,12.512 33.524,13.734 32.882,15.712 30.802,15.712 30.16,13.734 	"/>
	<polygon class="st1" points="40.924,12.512 42.606,13.734 41.964,15.712 39.884,15.712 39.242,13.734 	"/>
</g>
</svg>
