<?xml version="1.0" encoding="utf-8"?>
<!-- Generator: Adobe Illustrator 20.0.0, SVG Export Plug-In . SVG Version: 6.00 Build 0)  -->
<svg version="1.1" id="Layer_1" xmlns="http://www.w3.org/2000/svg" xmlns:xlink="http://www.w3.org/1999/xlink" x="0px" y="0px"
	 viewBox="0 0 51.25 39.5" style="enable-background:new 0 0 51.25 39.5;" xml:space="preserve">
<style type="text/css">
	.st0{fill:#2196F3;}
</style>
<g id="pfeil_1_">
	<path class="st0" d="M13.907,6.888c4.923-0.441,6.359-6.263,12.231-5.247c-0.232,0.222-0.307,0.476-0.221,0.757
		c-5.405,4.6-12.447,7.9-16.418,13.647c-1.241,0.959-2.483,1.918-3.724,2.877c-6.212,1.975-2.883,3.565,0.315,5.159
		c1.056,0.952,2.113,1.904,3.162,2.856c1.023,2.205,2.932,3.714,5.56,4.654c0.873,1.744,2.415,2.998,4.359,3.952
		c-0.242,1.158,1.6,4.044-2.452,2.08c-2.376-1.152-3.498-3.676-6.567-4.149c-0.742-0.653-1.484-1.306-2.227-1.959
		C-1.587,24.354-1.4,17.438,8.711,10.772C10.443,9.477,12.175,8.183,13.907,6.888z"/>
	<path class="st0" d="M13.944,19.785c3.669,0.205,7.401,1.067,10.883-0.686c7.54,0.055,13.529,0.676,21.468,0.021
		c7.685-0.635,4.184,4.116-14.989,4.105c-5.687-0.003-8.506-0.014-14.299-0.062C14.192,23.14,12.02,22.678,13.944,19.785z"/>
</g>
</svg>
