<?xml version="1.0" encoding="utf-8"?>
<!-- Generator: Adobe Illustrator 20.0.0, SVG Export Plug-In . SVG Version: 6.00 Build 0)  -->
<svg version="1.1" id="Layer_1" xmlns="http://www.w3.org/2000/svg" xmlns:xlink="http://www.w3.org/1999/xlink" x="0px" y="0px"
	 viewBox="0 0 72.586 46.968" style="enable-background:new 0 0 72.586 46.968;" xml:space="preserve">
<style type="text/css">
	.st0{fill:#ECEAEF;}
	.st1{fill:#2196F3;}
	.st2{fill:#FFFFFF;}
</style>
<g>
	<g>
		<path class="st0" d="M64.23,46.968H8.356C3.741,46.968,0,43.226,0,38.611V14.049c0-4.615,3.741-8.356,8.356-8.356H64.23
			c4.615,0,8.356,3.741,8.356,8.356v24.562C72.586,43.226,68.845,46.968,64.23,46.968z"/>
		<path class="st0" d="M48.747,8.54H23.84V2.945C23.84,1.319,25.158,0,26.785,0h19.518c1.35,0,2.444,1.094,2.444,2.444V8.54z"/>
		<circle class="st1" cx="36.293" cy="25.416" r="11.03"/>
		<rect x="29.651" y="24.704" class="st2" width="13.284" height="1.423"/>
		
			<rect x="29.651" y="24.704" transform="matrix(4.491436e-11 -1 1 4.491436e-11 10.8774 61.7088)" class="st2" width="13.284" height="1.423"/>
	</g>
</g>
</svg>
