<?xml version="1.0" encoding="utf-8"?>
<!-- Generator: Adobe Illustrator 20.0.0, SVG Export Plug-In . SVG Version: 6.00 Build 0)  -->
<svg version="1.1" id="Layer_1" xmlns="http://www.w3.org/2000/svg" xmlns:xlink="http://www.w3.org/1999/xlink" x="0px" y="0px"
	 viewBox="0 0 15.417 13.583" style="enable-background:new 0 0 15.417 13.583;" xml:space="preserve">
<style type="text/css">
	.st0{fill:#F7F7F7;}
	.st1{fill:#EF868B;}
	.st2{fill:#F6EFED;}
</style>
<g id="herz_12_">
	<path class="st0" d="M9.587,0.768C9.55,0.762,9.51,0.763,9.477,0.748C9.46,0.74,9.456,0.705,9.445,0.683
		C9.494,0.71,9.543,0.737,9.592,0.764C8.586,1.666,7.726,2.46,6.231,1.256c-1.19-0.959-4.188-0.246-4.92,0.822
		c-1.228,1.792-1.137,4,0.144,5.777C2.7,9.583,4.41,10.834,5.954,12.24c0.489,0.445,1.321,1.343,2.239,0.647
		c2.248-1.704,4.775-3.126,6.069-5.838c0.771-1.617,0.725-3.14-0.278-4.652C12.902,0.767,11.202,0.906,9.587,0.768z"/>
	<path class="st1" d="M9.587,0.768c1.615,0.138,3.315-0.001,4.396,1.629c1.003,1.512,1.05,3.036,0.278,4.652
		c-1.293,2.711-3.821,4.133-6.069,5.838c-0.919,0.696-1.751-0.202-2.239-0.647C4.41,10.834,2.7,9.583,1.455,7.854
		c-1.28-1.777-1.372-3.985-0.144-5.777c0.732-1.068,3.73-1.781,4.92-0.822c1.495,1.204,2.355,0.411,3.36-0.492L9.587,0.768z
		 M7.925,3.598C7.63,4.032,7.361,3.678,7.085,3.57C6.281,1.994,4.781,1.438,3.235,2.143C1.63,2.876,0.949,4.656,1.766,6.278
		c1.199,2.381,3.302,3.912,5.365,5.465c0.283,0.213,0.564,0.273,0.894,0.035c2.099-1.513,4.169-3.081,5.439-5.393
		c0.966-1.759,0-3.954-1.857-4.41C10.004,1.583,8.778,2.208,7.925,3.598z"/>
	<path class="st1" d="M9.592,0.764C9.543,0.737,9.494,0.71,9.445,0.683C9.456,0.705,9.46,0.74,9.477,0.748
		c0.033,0.015,0.073,0.015,0.11,0.02L9.592,0.764z"/>
	<path class="st0" d="M6.823,3.57C7.1,3.678,7.369,4.032,7.664,3.598c0.186,0.089,0.373,0.179,0.56,0.269
		c0.092,0.549,0.32,0.628,0.695,0.201c0.84-0.957,1.751-1.285,2.832-0.348c0.243,0.211,0.406-0.068,0.59-0.173
		c0.597,0.344,0.252,0.762,0.092,1.166c-0.742,2.501-2.685,3.97-4.647,5.429c-0.455,0.338-0.824,0.113-1.138-0.148
		c-1.296-1.077-2.59-2.174-3.561-3.565c-0.605-0.867-1.112-1.941-0.101-2.78c0.933-0.775,1.93-0.636,2.808,0.38
		c0.602,0.696,0.7,0.138,0.647-0.425C6.568,3.592,6.696,3.581,6.823,3.57z"/>
	<path class="st2" d="M7.085,3.57C6.957,3.581,6.829,3.592,6.702,3.603c-1.597-1.386-2.788-1.516-3.94-0.43
		C1.649,4.223,1.699,5.56,2.992,7.186C4.137,8.624,5.543,9.8,6.975,10.941c0.311,0.248,0.682,0.405,1.033,0.137
		c1.902-1.453,3.827-2.899,4.968-5.083c0.206-0.395,0.744-1.068-0.282-1.283c0.16-0.404,0.504-0.822-0.092-1.165
		c0.023-0.45-0.262-0.649-0.626-0.822c-1.303-0.619-2.348-0.284-3.492,1.142c-0.187-0.09-0.373-0.179-0.56-0.269
		c0.853-1.39,2.079-2.015,3.681-1.622c1.857,0.456,2.823,2.651,1.857,4.41c-1.27,2.312-3.34,3.88-5.439,5.393
		c-0.33,0.238-0.61,0.179-0.894-0.035c-2.063-1.553-4.166-3.085-5.365-5.465C0.949,4.656,1.63,2.876,3.235,2.143
		C4.781,1.438,6.281,1.994,7.085,3.57z"/>
	<path class="st1" d="M12.694,4.712c1.026,0.215,0.488,0.888,0.282,1.283c-1.141,2.184-3.065,3.63-4.968,5.083
		c-0.351,0.268-0.721,0.111-1.033-0.137C5.543,9.8,4.137,8.624,2.992,7.186C1.699,5.56,1.649,4.223,2.762,3.173
		c1.151-1.086,2.343-0.956,3.94,0.43c0.053,0.563-0.045,1.122-0.647,0.426C5.176,3.012,4.18,2.873,3.247,3.648
		c-1.011,0.84-0.504,1.914,0.101,2.78c0.971,1.39,2.264,2.487,3.561,3.565c0.314,0.261,0.684,0.485,1.138,0.148
		C10.009,8.682,11.952,7.213,12.694,4.712z"/>
	<path class="st1" d="M8.485,3.867c1.143-1.426,2.188-1.761,3.492-1.142c0.364,0.173,0.648,0.372,0.626,0.822
		c-0.184,0.105-0.347,0.384-0.59,0.173C10.931,2.783,10.02,3.11,9.18,4.068C8.805,4.495,8.577,4.416,8.485,3.867z"/>
</g>
</svg>
