<?xml version="1.0" encoding="utf-8"?>
<!-- Generator: Adobe Illustrator 20.0.0, SVG Export Plug-In . SVG Version: 6.00 Build 0)  -->
<svg version="1.1" id="Layer_1" xmlns="http://www.w3.org/2000/svg" xmlns:xlink="http://www.w3.org/1999/xlink" x="0px" y="0px"
	 viewBox="0 0 38.125 50.625" style="enable-background:new 0 0 38.125 50.625;" xml:space="preserve">
<style type="text/css">
	.st0{fill:#EF868B;}
</style>
<g id="pfeil">
	<path class="st0" d="M484.127,205.036c-0.441-4.923-6.263-6.359-5.247-12.231c0.222,0.232,0.476,0.307,0.757,0.221
		c4.6,5.405,7.9,12.447,13.647,16.418c0.959,1.241,1.918,2.483,2.877,3.724c1.975,6.212,3.565,2.883,5.159-0.314
		c0.952-1.056,1.904-2.113,2.856-3.162c2.205-1.023,3.714-2.932,4.654-5.56c1.744-0.873,2.998-2.415,3.952-4.359
		c1.158,0.242,4.044-1.6,2.08,2.452c-1.152,2.376-3.676,3.498-4.149,6.567c-0.653,0.742-1.306,1.484-1.959,2.227
		c-7.161,9.511-14.077,9.324-20.743-0.787C486.716,208.5,485.421,206.768,484.127,205.036z"/>
	<path class="st0" d="M497.023,204.999c0.204-3.669,1.067-7.401-0.686-10.883c0.055-7.54,0.676-13.529,0.021-21.468
		c-0.635-7.685,4.116-4.184,4.105,14.989c-0.003,5.687-0.014,8.506-0.062,14.299C500.378,204.751,499.916,206.924,497.023,204.999z"
		/>
</g>
<g id="pfeil_1_">
	<path class="st0" d="M6.282,36.949c-0.441-4.923-6.263-6.359-5.247-12.231c0.222,0.232,0.476,0.307,0.757,0.221
		c4.6,5.405,7.9,12.447,13.647,16.418c0.959,1.241,1.918,2.483,2.877,3.724c1.975,6.212,3.565,2.883,5.159-0.315
		c0.952-1.056,1.904-2.113,2.856-3.162c2.205-1.023,3.714-2.932,4.654-5.56c1.744-0.873,2.998-2.415,3.952-4.359
		c1.158,0.242,4.044-1.6,2.08,2.452c-1.152,2.376-3.676,3.498-4.149,6.567c-0.653,0.742-1.306,1.484-1.959,2.227
		c-7.161,9.511-14.077,9.324-20.743-0.787C8.871,40.413,7.577,38.681,6.282,36.949z"/>
	<path class="st0" d="M19.179,36.912c0.205-3.669,1.067-7.401-0.686-10.883c0.055-7.54,0.676-13.529,0.021-21.468
		c-0.635-7.685,4.116-4.184,4.105,14.989c-0.003,5.687-0.014,8.506-0.062,14.299C22.534,36.664,22.072,38.836,19.179,36.912z"/>
</g>
</svg>
