<?xml version="1.0" encoding="utf-8"?>
<!-- Generator: Adobe Illustrator 20.0.0, SVG Export Plug-In . SVG Version: 6.00 Build 0)  -->
<svg version="1.1" id="Layer_1" xmlns="http://www.w3.org/2000/svg" xmlns:xlink="http://www.w3.org/1999/xlink" x="0px" y="0px"
	 viewBox="0 0 30.142 30.281" style="enable-background:new 0 0 30.142 30.281;" xml:space="preserve">
<style type="text/css">
	.st0{fill:#020203;}
</style>
<g id="filter">
	<g>
		<path class="st0" d="M19.595,29.121V1.16c0-0.563,0.457-1.02,1.02-1.02h0.919c0.563,0,1.02,0.457,1.02,1.02v27.96
			c0,0.563-0.457,1.02-1.02,1.02h-0.919C20.052,30.141,19.595,29.684,19.595,29.121z"/>
		<path class="st0" d="M26.044,20.837h-9.938c-0.571,0-1.035,0.463-1.035,1.035v0.931c0,0.571,0.463,1.035,1.035,1.035h9.938
			c0.571,0,1.035-0.463,1.035-1.035v-0.931C27.078,21.3,26.615,20.837,26.044,20.837z"/>
		<g id="filter_8_">
			<path class="st0" d="M10.547,1.16v27.96c0,0.563-0.457,1.02-1.02,1.02H8.607c-0.563,0-1.02-0.457-1.02-1.02V1.16
				c0-0.563,0.457-1.02,1.02-1.02h0.919C10.09,0.141,10.547,0.597,10.547,1.16z"/>
		</g>
		<path class="st0" d="M4.098,9.444h9.938c0.571,0,1.035-0.463,1.035-1.035V7.479c0-0.571-0.463-1.035-1.035-1.035H4.098
			c-0.571,0-1.035,0.463-1.035,1.035V8.41C3.063,8.981,3.526,9.444,4.098,9.444z"/>
	</g>
</g>
</svg>
