<?xml version="1.0" encoding="utf-8"?>
<!-- Generator: Adobe Illustrator 20.0.0, SVG Export Plug-In . SVG Version: 6.00 Build 0)  -->
<svg version="1.1" id="Layer_1" xmlns="http://www.w3.org/2000/svg" xmlns:xlink="http://www.w3.org/1999/xlink" x="0px" y="0px"
	 viewBox="0 0 120.75 101.25" style="enable-background:new 0 0 120.75 101.25;" xml:space="preserve">
<style type="text/css">
	.st0{fill:#F7F7F7;}
	.st1{fill:#EF868B;}
	.st2{fill:#F6EFED;}
</style>
<g>
	<g>
		<path class="st0" d="M39.34,36.535c-0.008,0-0.017,0-0.025,0c0,4.937-0.076,9.875,0.017,14.81
			c0.166,8.79,2.946,11.771,11.749,11.543c6.157-0.159,11.367,0.885,16.615,4.682c6.325,4.576,14.203,6.611,21.034,1.324
			c6.916-5.351,14.286-6.576,22.5-6.013c3.625,0.249,6.716-0.545,7.187-5.104c1.496-14.486,1.814-28.964-0.384-43.399
			c-0.206-1.355,0.289-3.945-2.79-3.7c-1.735,0.138-3.931,0.234-4.798-1.723c-0.825-1.863-0.491-3.645,2.172-3.803
			c-0.437-0.138-0.951-0.171-1.298-0.429c-6.899-5.126-14.855-3.266-22.479-3.302c-2.996-0.014-5.975,1.225-6.167,4.714
			c-0.229,4.159-2.705,4.317-5.782,4.304c-9.094-0.039-18.196,0.243-27.28-0.046c-7.051-0.225-10.011,3.317-10.23,9.774
			C39.193,25.617,39.34,31.079,39.34,36.535z"/>
		<path class="st1" d="M39.34,36.535c0-5.457-0.147-10.918,0.038-16.368c0.219-6.457,3.179-9.999,10.23-9.774
			c9.085,0.289,18.186,0.007,27.28,0.046c3.077,0.013,5.553-0.145,5.782-4.304c0.192-3.488,3.171-4.728,6.167-4.714
			c7.624,0.036,15.58-1.824,22.479,3.302c0.347,0.258,0.861,0.291,1.298,0.429c-2.662,0.158-2.997,1.94-2.172,3.803
			c0.867,1.957,3.062,1.861,4.798,1.723c3.08-0.245,2.584,2.345,2.79,3.7c2.198,14.435,1.88,28.913,0.384,43.399
			c-0.471,4.559-3.562,5.353-7.187,5.104c-8.213-0.563-15.584,0.661-22.5,6.013c-6.831,5.286-14.709,3.251-21.034-1.324
			c-5.248-3.797-10.458-4.841-16.615-4.682c-8.803,0.228-11.583-2.753-11.749-11.543c-0.093-4.935-0.017-9.873-0.017-14.81
			C39.324,36.535,39.332,36.535,39.34,36.535z M98.359,20.06c-3.726,3.883-6.443,2.771-8.818,2.795
			c-12.725,0.126-25.454,0.154-38.178-0.002c-4.4-0.054-6.737,0.993-6.464,6.083c0.389,7.252,0.285,14.543,0.08,21.808
			c-0.152,5.409,2.718,6.329,7.34,6.432c4.918,0.109,5.179-2.23,5.165-6.232c-0.05-14.731,9.426-24.881,22.371-24.47
			c12.947,0.411,21.609,10.167,21.303,24.634c-0.091,4.289,0.768,6.116,5.39,6.092c4.538-0.024,7.617-0.563,7.22-6.222
			c-0.345-4.912-0.095-9.865-0.119-14.8c-0.055-11.417-0.058-11.417-9.7-14.764c1.952-3.594,7.043-0.045,9.451-4.035
			c-22.994,0-45.245,0-67.496,0c-0.006,0.893-0.013,1.786-0.019,2.679C62.844,20.06,79.801,20.06,98.359,20.06z M79.756,32.043
			c-9.472-0.122-17.374,7.62-17.388,17.034c-0.012,8.395,8.599,16.97,17.027,16.956c8.546-0.015,16.962-8.43,16.995-16.993
			C96.425,40.027,88.725,32.159,79.756,32.043z M88.189,8.787c5.097,1.805,10.175,2.67,16.794-0.386
			C98.235,6.515,93.206,6.744,88.189,8.787z"/>
		<path class="st2" d="M98.359,20.06c-18.557,0-35.515,0-52.472,0c0.006-0.893,0.013-1.786,0.019-2.679c22.251,0,44.502,0,67.496,0
			c-2.408,3.99-7.5,0.44-9.451,4.035c9.642,3.347,9.644,3.347,9.7,14.764c0.024,4.935-0.226,9.888,0.119,14.8
			c0.397,5.659-2.682,6.198-7.22,6.222c-4.622,0.024-5.481-1.803-5.39-6.092c0.306-14.467-8.356-24.223-21.303-24.634
			c-12.945-0.411-22.421,9.739-22.371,24.47c0.013,4.001-0.247,6.341-5.165,6.232c-4.623-0.102-7.493-1.022-7.34-6.432
			c0.205-7.266,0.309-14.557-0.08-21.808c-0.273-5.09,2.064-6.137,6.464-6.083c12.725,0.157,25.453,0.128,38.178,0.002
			C91.916,22.831,94.633,23.943,98.359,20.06z"/>
		<path class="st2" d="M79.756,32.043c8.969,0.116,16.669,7.983,16.634,16.997c-0.033,8.563-8.45,16.978-16.995,16.993
			c-8.427,0.014-17.038-8.561-17.027-16.956C62.381,39.663,70.284,31.921,79.756,32.043z M85.059,38.505
			c-5.223-3.867-9.744-2.62-14.007,1.04c-5.109,4.386-5.417,9.877-2.624,15.462c2.793,5.586,8.106,7.298,13.792,6.185
			c5.944-1.162,9.281-5.464,9.604-11.579c0.109-2.067,1.026-5.697-2.012-5.736c-3.299-0.042-0.862,3.193-1.234,4.926
			c-1.166,5.43-3.987,8.96-10.07,8.531c-5.342-0.376-8.234-3.866-8.001-8.671c0.267-5.516,3.776-8.884,9.768-8.743
			C81.701,39.953,83.275,41.246,85.059,38.505z M79.475,53.452c1.923-0.799,4.177-1.682,4.337-4.431
			c0.16-2.757-1.473-4.318-4.228-4.408c-2.652-0.086-4.62,1.062-4.68,3.931C74.847,51.233,76.671,52.623,79.475,53.452z"/>
		<path class="st2" d="M88.189,8.787c5.017-2.043,10.045-2.272,16.794-0.386C98.365,11.457,93.287,10.591,88.189,8.787z"/>
		<path class="st1" d="M85.059,38.505c-1.784,2.741-3.359,1.448-4.785,1.415c-5.992-0.141-9.5,3.228-9.768,8.743
			c-0.233,4.805,2.659,8.295,8.001,8.671c6.083,0.429,8.904-3.101,10.07-8.531c0.372-1.733-2.065-4.968,1.234-4.926
			c3.038,0.038,2.121,3.668,2.012,5.736c-0.323,6.115-3.66,10.417-9.604,11.579c-5.687,1.112-10.999-0.599-13.792-6.185
			c-2.793-5.585-2.485-11.076,2.624-15.462C75.315,35.885,79.836,34.638,85.059,38.505z"/>
		<path class="st1" d="M79.475,53.452c-2.804-0.829-4.628-2.219-4.571-4.908c0.06-2.869,2.028-4.017,4.68-3.931
			c2.755,0.089,4.389,1.65,4.228,4.408C83.652,51.77,81.397,52.653,79.475,53.452z"/>
	</g>
	<g>
		<path class="st0" d="M54.401,56.333c1.684-1.891,3.333-3.814,5.059-5.666c7.121-7.643,7.657-16.969,1.372-24.393
			c-6.016-7.105-15.045-8.126-23.551-1.824c-3.036,2.249-4.537,2.025-7.112-0.131c-5.729-4.796-12.302-5.313-18.795-1.973
			C2.045,27.146,0.719,36.057,2.658,44.809c1.13,5.099,7.458,6.956,12.222,9.139c3.682,1.688,7.697,0.035,11.501,0.806
			c-4.662,4.281-10.268,1.258-15.396,1.939c-2.584,0.343-6.026-0.022-6.204,3.209c-0.195,3.533-2.336,8.524,2.266,10.437
			c4.169,1.734,4.694,4.421,4.365,7.924c-0.554,5.911,2.275,7.485,7.808,7.604c10.047,0.216,20.157-1.427,30.182,0.906
			c1.339,0.312,3.808-0.98,4.614-2.251c2.198-3.466,4.775-2.46,7.98-2.124c4.487,0.471,10.322,2.38,10.685-5.868
			c0.667-15.161,0.415-16.018-9.688-15.276C58.654,61.574,55.185,61.642,54.401,56.333z"/>
		<path class="st0" d="M44.381,96.547c-2.826-3.392-5.673-7.997-10.476-7.918c-4.237,0.07-8.024,3.472-9.937,7.509
			c-1.186,2.503,1.164,4.282,3.376,3.24c4.627-2.18,8.83-1.757,13.363,0.055C42.396,100.109,44.347,99.404,44.381,96.547z"/>
		<path class="st1" d="M54.401,56.334c0.784,5.308,4.253,5.24,8.592,4.921c10.102-0.742,10.354,0.115,9.688,15.276
			c-0.363,8.248-6.198,6.339-10.685,5.868c-3.205-0.336-5.782-1.342-7.98,2.124c-0.806,1.271-3.275,2.563-4.614,2.251
			c-10.025-2.333-20.135-0.69-30.182-0.906c-5.532-0.119-8.362-1.693-7.808-7.604c0.328-3.503-0.196-6.19-4.365-7.924
			c-4.602-1.914-2.46-6.904-2.266-10.437c0.178-3.231,3.62-2.866,6.204-3.209c5.128-0.682,10.734,2.341,15.396-1.939l-0.072,0.045
			c9.2,3.835,18.736,1.611,28.152,1.565L54.401,56.334z M38.167,66.154c-0.024,0.878-0.047,1.755-0.071,2.633
			c-5.062,0-10.13,0.142-15.185-0.042c-4.487-0.164-4.929,2.773-5.159,6.05c-0.256,3.641,1.497,5.126,5.083,5.078
			c7.503-0.101,15.009-0.014,22.513-0.056c2.06-0.011,4.631,0.093,4.487-2.856c-0.136-2.772,1.869-6.423-2.391-8.003
			c-1.139-0.422-2.66-0.185-2.912-1.64c0.068-2.985,5.019-0.517,4.256-4.169c-12.449,0-24.812,0-37.174,0
			c-0.029,0.79-0.058,1.581-0.087,2.372c4.414,0,8.831-0.108,13.241,0.03C29.231,65.692,33.811,64.846,38.167,66.154z M65.916,75.91
			c1.086-2.077,0.985-4.313,0.657-6.508c-0.371-2.485-2.387-2.331-4.163-2.146c-2.662,0.277-5.081,1.142-5.757,4.143
			c-0.301,1.335,0.228,2.707,1.639,3.056c3.036,0.751,1.09-3.771,3.68-3.657C64.727,71.323,62.528,75.383,65.916,75.91z"/>
		<path class="st1" d="M26.381,54.754c-3.804-0.771-7.819,0.881-11.501-0.806c-4.764-2.183-11.092-4.04-12.222-9.139
			c-1.939-8.751-0.613-17.663,8.716-22.462c6.492-3.34,13.066-2.823,18.795,1.973c2.575,2.156,4.076,2.38,7.112,0.131
			c8.506-6.302,17.535-5.281,23.551,1.824c6.285,7.423,5.749,16.75-1.372,24.393c-1.726,1.852-3.375,3.776-5.059,5.666
			c0,0,0.059,0.03,0.059,0.03c-1.233-3.195-3.913-1.455-5.961-1.667c-3.294-0.34-8.567,0.82-9.598-0.809
			c-5.315-8.4-8.682-2.421-12.593,0.911L26.381,54.754z M47.802,26.459c-6.843,0.075-11.025,4.443-10.865,11.351
			c0.157,6.758,4.699,11.124,11.352,10.91c6.658-0.214,11.293-4.992,11.088-11.427C59.165,30.673,54.584,26.385,47.802,26.459z
			 M20.059,48.778c6.299-0.157,11.275-5.312,11.066-11.463c-0.211-6.198-5.236-10.911-11.538-10.823
			c-6.537,0.092-12.075,5.632-11.726,11.73C8.194,44.06,13.826,48.934,20.059,48.778z"/>
		<path class="st1" d="M44.381,96.547c-0.034,2.857-1.985,3.562-3.674,2.886c-4.533-1.812-8.735-2.236-13.363-0.055
			c-2.212,1.042-4.562-0.738-3.376-3.24c1.913-4.037,5.7-7.439,9.937-7.509C38.708,88.55,41.555,93.156,44.381,96.547z"/>
		<path class="st2" d="M38.167,66.154c-4.356-1.308-8.936-0.462-13.4-0.602c-4.409-0.139-8.827-0.03-13.241-0.03
			c0.029-0.79,0.058-1.581,0.087-2.372c12.363,0,24.725,0,37.174,0c0.762,3.652-4.189,1.184-4.256,4.169
			c0.252,1.455,1.773,1.218,2.912,1.64c4.259,1.58,2.255,5.23,2.391,8.003c0.144,2.95-2.427,2.845-4.487,2.856
			c-7.504,0.041-15.01-0.045-22.513,0.056c-3.586,0.048-5.339-1.437-5.083-5.078c0.23-3.277,0.673-6.215,5.159-6.05
			c5.056,0.185,10.123,0.042,15.185,0.042C38.119,67.909,38.143,67.032,38.167,66.154z"/>
		<path class="st0" d="M26.308,54.799c3.911-3.332,7.278-9.311,12.593-0.911c1.031,1.629,6.304,0.468,9.598,0.809
			c2.047,0.212,4.728-1.528,5.961,1.667C45.045,56.41,35.508,58.634,26.308,54.799z"/>
		<path class="st2" d="M65.916,75.91c-3.388-0.527-1.188-4.586-3.941-5.105c-2.593-0.121-0.647,4.401-3.683,3.65
			c-1.411-0.349-1.94-1.721-1.639-3.056c0.676-3,3.095-3.865,5.757-4.143c1.776-0.185,3.792-0.339,4.163,2.146
			C66.901,71.597,67.002,73.833,65.916,75.91z"/>
		<path class="st2" d="M47.802,26.459c6.783-0.074,11.364,4.213,11.575,10.834c0.206,6.435-4.43,11.213-11.088,11.427
			c-6.653,0.214-11.196-4.151-11.352-10.91C36.777,30.903,40.958,26.534,47.802,26.459z M48.325,32.803
			c-3.093,0.13-4.911,1.672-4.965,4.723c-0.053,3.024,1.638,4.78,4.693,4.912c3.162,0.137,4.814-1.686,4.828-4.668
			C52.895,34.886,51.467,32.92,48.325,32.803z"/>
		<path class="st2" d="M20.059,48.778C13.826,48.934,8.194,44.06,7.86,38.222c-0.349-6.098,5.19-11.638,11.726-11.73
			c6.302-0.088,11.327,4.625,11.538,10.823C31.334,43.467,26.358,48.621,20.059,48.778z M19.536,32.701
			c-2.801,0.218-5.27,1.145-5.223,4.404c0.046,3.217,1.855,5.274,5.311,5.341c3.025,0.059,5.023-1.378,5.134-4.473
			C24.88,34.572,22.984,32.782,19.536,32.701z"/>
		<path class="st1" d="M48.325,32.803c3.142,0.116,4.57,2.083,4.557,4.968c-0.014,2.981-1.666,4.804-4.828,4.668
			c-3.055-0.132-4.746-1.888-4.693-4.912C43.414,34.476,45.232,32.934,48.325,32.803z"/>
		<path class="st1" d="M19.544,32.703c3.44,0.079,5.337,1.869,5.214,5.27c-0.112,3.095-2.109,4.532-5.134,4.473
			c-3.455-0.067-5.265-2.124-5.311-5.341C14.266,33.847,16.735,32.919,19.544,32.703z"/>
	</g>
</g>
</svg>
