<?xml version="1.0" encoding="utf-8"?>
<!-- Generator: Adobe Illustrator 20.0.0, SVG Export Plug-In . SVG Version: 6.00 Build 0)  -->
<svg version="1.1" id="Layer_1" xmlns="http://www.w3.org/2000/svg" xmlns:xlink="http://www.w3.org/1999/xlink" x="0px" y="0px"
	 viewBox="0 0 101.833 123.5" style="enable-background:new 0 0 101.833 123.5;" xml:space="preserve">
<style type="text/css">
	.st0{fill:#EF868B;}
	.st1{fill:#F7F7F7;}
	.st2{fill:#F6EFED;}
</style>
<g id="pfeil">
	<path class="st0" d="M479.877,296.536c-0.441-4.923-6.263-6.359-5.247-12.231c0.222,0.232,0.476,0.307,0.757,0.221
		c4.6,5.405,7.9,12.447,13.647,16.418c0.959,1.241,1.918,2.483,2.877,3.724c1.975,6.212,3.565,2.883,5.159-0.315
		c0.952-1.056,1.904-2.113,2.856-3.162c2.205-1.023,3.714-2.932,4.654-5.56c1.744-0.873,2.998-2.415,3.952-4.359
		c1.158,0.242,4.044-1.6,2.08,2.452c-1.152,2.376-3.676,3.498-4.149,6.568c-0.653,0.742-1.306,1.484-1.959,2.227
		c-7.161,9.511-14.077,9.324-20.743-0.787C482.466,300,481.171,298.268,479.877,296.536z"/>
	<path class="st0" d="M492.773,296.499c0.204-3.669,1.067-7.401-0.686-10.883c0.055-7.54,0.676-13.529,0.021-21.468
		c-0.635-7.685,4.116-4.184,4.105,14.989c-0.003,5.687-0.014,8.506-0.062,14.299C496.128,296.251,495.666,298.424,492.773,296.499z"
		/>
</g>
<g>
	<g>
		<path class="st1" d="M60.868,97.593c-0.267-0.269-0.611-0.485-0.971-0.605c-6.448-2.151-12.9-1.557-19.353,0.164
			c-2.521-0.206-3.607-1.584-3.331-4.076c13.554,0.824,25.968,1.418,36.181-11.722C84.587,66.95,89.27,58.011,82.701,41.302
			c-8.197-20.85-40.164-28.409-56.287-13.094C11.96,41.937,13.121,69.249,28.961,81.859c3.506,2.791,6.687,5.486,7.945,9.73
			c0.257,0.867,0.006,1.789-0.627,2.434c-5.254,5.359-5.13,12.059,0.127,16.372c3.311,2.717,5.803,6.04,6.939,10.215
			c0.415,1.523,2.101,2.271,3.455,1.46c3.96-2.369,9.963-2.423,9.644-9.147c0.413-0.301,0.875-0.452,1.387-0.455
			C65.561,107.261,66.423,103.187,60.868,97.593z"/>
		<path class="st0" d="M37.263,93.093c-0.897-5.137-4.398-8.126-8.302-11.234c-15.84-12.61-17.001-39.923-2.548-53.652
			c16.123-15.315,48.091-7.756,56.287,13.094c6.569,16.709,1.887,25.649-9.307,40.052c-10.213,13.14-22.627,12.546-36.183,11.723
			C37.209,93.078,37.263,93.093,37.263,93.093z M68.931,36.2c-1.324-3.967-4.422-5.312-8.249-5.579
			c-11.463-6.028-25.413-2.127-32.793,9.17c-8.022,12.278-5.319,28.134,6.407,37.271c2.527,1.969,6.534,3.22,7.54,5.731
			c2.732,6.817,8.854,5.963,11.891,3.657c7.785-5.915,17.216-10.466,21.764-19.908C80.891,55.332,78.31,43.946,68.931,36.2z"/>
		<path class="st2" d="M56.062,115.924c-1.367,3.815-6.005,4.197-9.263,6.146c-1.355,0.81-3.041,0.063-3.455-1.46
			c-1.136-4.175-3.628-7.498-6.939-10.215c-5.565-4.566-5.377-11.807,0.855-17.301c0.002-0.002-0.052-0.017-0.05-0.018
			c-0.211,1.915,0.382,3.172,1.814,3.745c0.836,0.335,1.414,1.168,1.478,2.066c0.299,4.154,3.767,4.615,7.352,4.048
			c3.803-0.603,9.235,1.912,11.567-2.149c0.862-1.501,3.104-1.528,3.982-0.037c1.786,3.03,1.272,5.708-1.635,8.592
			c-1.267,1.257-3.366,0.639-3.917-1.059c-1.155-3.562-6.286-1.124-9.213-1.728c-1.951-0.403-5.56-0.329-5.182,2.463
			c0.759,5.604,5.874,2.991,9.199,3.692c0.417,0.088,0.843,0.134,1.274,0.158C55.469,112.955,56.582,114.473,56.062,115.924z"/>
		<path class="st0" d="M58.293,96.509c1.323,0.35,2.098,1.75,1.668,3.049c-1.905,5.756-7.969,2.722-12.106,3.378
			c-3.463,0.548-6.817,0.136-7.311-3.636c-0.155-1.183,0.616-2.322,1.778-2.592C47.647,95.469,52.971,95.1,58.293,96.509z"/>
		<path class="st0" d="M56.443,112.924c-1.265-0.061-2.564,0.043-3.788-0.215c-3.324-0.701-8.44,1.912-9.199-3.692
			c-0.378-2.792,3.231-2.866,5.182-2.463c3.692,0.762,10.892-3.316,9.193,5.915C57.319,112.471,56.857,112.623,56.443,112.924z"/>
		<path class="st2" d="M54.972,63.809c-0.664,1.636-1.3,3.215-2.1,4.672c-0.926,1.685-3.372,1.625-4.207-0.107
			c-2.904-6.026-3.243-7.916-0.155-9.931c1.872-1.222,1.267-4.058-0.95-4.342c-0.069-0.009-0.137-0.018-0.206-0.029
			c-8.111-1.234-9.768,1.824-6.377,8.939c2.356,4.944,4.136,10.158,6.33,15.183c1.901,4.354,4.942,4.651,6.653,0.364
			c1.693-4.24,3.805-8.382,5.431-13.137C60.37,62.56,56.11,61.006,54.972,63.809z"/>
		<path class="st0" d="M54.972,63.809c1.139-2.804,5.399-1.249,4.42,1.614c-1.626,4.754-3.738,8.897-5.431,13.137
			c-1.712,4.287-4.752,3.99-6.653-0.364c-2.194-5.025-3.974-10.24-6.33-15.183c-3.391-7.116-1.734-10.173,6.377-8.939
			c0.068,0.01,0.137,0.02,0.206,0.029c2.217,0.284,2.822,3.12,0.95,4.342c-3.089,2.016-2.749,3.905,0.155,9.931
			c0.835,1.732,3.281,1.791,4.207,0.107C53.672,67.025,54.307,65.445,54.972,63.809z"/>
	</g>
	<g id="lightbulbstriche">
		<path class="st0" d="M6.169,37.199c7.929,5.083,5.287,3.389,7.929,5.083c-0.513,0.394-10.936-0.132-12.916-4.116
			C-0.46,34.861,4.232,37.197,6.169,37.199z"/>
		<path class="st0" d="M96.779,41.12c-0.637-3.068-6.24,0.737-9.358,1.105c1.354-5.828,9.387-6.445,12.595-5.011
			C103.388,38.722,96.088,42.925,96.779,41.12z"/>
		<path class="st0" d="M80.398,15.976c-3.974-0.96-3.886,4.99-6.198,7.113c-2.265-5.418,2.63-10.489,7.275-11.447
			C85.09,10.898,80.894,17.85,80.398,15.976z"/>
		<path class="st0" d="M48.533,5.71c0.612,3.083,1.224,6.166,1.837,9.247c2.886-1.741,1.46-12.907,0.886-13.541
			C48.778-1.323,49.239,3.904,48.533,5.71z"/>
		<path class="st0" d="M15.855,15.073c1.143,2.926,5.103,5.598,7.739,7.304c1.586-6.849-8.833-10.056-9.091-10.065
			C10.814,12.183,16.233,13.172,15.855,15.073z"/>
	</g>
</g>
</svg>
