<?xml version="1.0" encoding="utf-8"?>
<!-- Generator: Adobe Illustrator 20.0.0, SVG Export Plug-In . SVG Version: 6.00 Build 0)  -->
<svg version="1.1" id="Layer_1" xmlns="http://www.w3.org/2000/svg" xmlns:xlink="http://www.w3.org/1999/xlink" x="0px" y="0px"
	 viewBox="0 0 30.142 26.281" style="enable-background:new 0 0 30.142 26.281;" xml:space="preserve">
<style type="text/css">
	.st0{display:none;}
	.st1{display:inline;}
	.st2{fill:#020203;}
</style>
<g id="filter" class="st0">
	<g class="st1">
		<path class="st2" d="M19.595,27.121V-0.84c0-0.563,0.457-1.02,1.02-1.02h0.919c0.563,0,1.02,0.457,1.02,1.02v27.96
			c0,0.563-0.457,1.02-1.02,1.02h-0.919C20.052,28.141,19.595,27.684,19.595,27.121z"/>
		<path class="st2" d="M26.044,18.837h-9.938c-0.571,0-1.035,0.463-1.035,1.035v0.931c0,0.571,0.463,1.035,1.035,1.035h9.938
			c0.571,0,1.035-0.463,1.035-1.035v-0.931C27.078,19.3,26.615,18.837,26.044,18.837z"/>
		<g id="filter_8_">
			<path class="st2" d="M10.547-0.84v27.96c0,0.563-0.457,1.02-1.02,1.02H8.607c-0.563,0-1.02-0.457-1.02-1.02V-0.84
				c0-0.563,0.457-1.02,1.02-1.02h0.919C10.09-1.859,10.547-1.403,10.547-0.84z"/>
		</g>
		<path class="st2" d="M4.098,7.444h9.938c0.571,0,1.035-0.463,1.035-1.035V5.479c0-0.571-0.463-1.035-1.035-1.035H4.098
			c-0.571,0-1.035,0.463-1.035,1.035V6.41C3.063,6.981,3.526,7.444,4.098,7.444z"/>
	</g>
</g>
<g id="hamburger-button">
	<g>
		<rect x="0.111" y="23.293" class="st2" width="29.92" height="2.988"/>
		<rect x="0.111" y="11.647" class="st2" width="29.92" height="2.988"/>
		<rect x="0.111" class="st2" width="29.92" height="2.988"/>
	</g>
</g>
</svg>
