<?xml version="1.0" encoding="utf-8"?>
<!-- Generator: Adobe Illustrator 20.0.0, SVG Export Plug-In . SVG Version: 6.00 Build 0)  -->
<svg version="1.1" id="Layer_1" xmlns="http://www.w3.org/2000/svg" xmlns:xlink="http://www.w3.org/1999/xlink" x="0px" y="0px"
	 viewBox="0 0 97.5 147.333" style="enable-background:new 0 0 97.5 147.333;" xml:space="preserve">
<style type="text/css">
	.st0{fill:#F7F7F7;}
	.st1{fill:#EF868B;}
	.st2{fill:#F6EFED;}
</style>
<g>
	<g>
		<path class="st0" d="M2.774,73.242c0,19.882,0.278,39.769-0.12,59.642c-0.193,9.637,3.362,13.669,13.247,13.472
			c21.266-0.423,42.563-0.648,63.813,0.07c12.732,0.43,16.634-5.144,16.42-16.936c-0.696-38.302,0.768-76.622-1.658-114.927
			c-0.585-9.231-4.034-12.898-12.66-12.916C60.041,1.603,38.265,1.686,16.493,1.429C5.964,1.306,2.471,6.453,2.687,16.439
			C3.097,35.365,2.806,54.306,2.774,73.242z"/>
		<path class="st1" d="M2.79,73.242c0.016-18.935,0.307-37.876-0.103-56.803C2.471,6.453,5.964,1.306,16.493,1.429
			c21.772,0.256,43.549,0.173,65.324,0.218c8.626,0.018,12.075,3.685,12.66,12.916c2.426,38.304,0.962,76.625,1.658,114.927
			c0.214,11.792-3.687,17.365-16.42,16.936c-21.25-0.717-42.548-0.493-63.813-0.07c-9.885,0.197-13.44-3.835-13.247-13.472
			C3.052,113.01,2.774,93.123,2.79,73.242z M84.816,43.604c-0.004-2.041-0.008-4.082-0.013-6.123
			c0.201-4.685,0.204-9.389,0.645-14.052c0.842-8.912-0.315-14.435-11.958-12.088c-8.95,1.804-18.441,0.925-27.692,1.239
			c-6.71-0.03-13.42-0.059-20.13-0.089C6.203,8.515,12.642,22.342,12.503,31.648c-0.023,2.083-0.046,4.166-0.069,6.248
			c0.034,3.615,0.068,7.23,0.102,10.845c-0.006,2.098-0.012,4.197-0.018,6.295c0.019,11.206,0.038,22.412,0.057,33.617
			c0.008,2.082,0.016,4.165,0.02,6.244c0.214,13.764-3.876,27.732,1.95,41.231c1.964,0.092,3.927,0.184,5.891,0.276
			c7.374,1.188,14.747,1.282,22.119-0.021c3.053-0.023,6.107-0.045,9.156-0.061c3.262,0.291,6.519,0.769,9.785,0.844
			c25.106,0.574,25.107,0.55,23.345-25.25c-0.024-2.06-0.048-4.121-0.072-6.181c-0.007-11.211-0.014-22.421-0.021-33.632
			c0.037-3.961,0.074-7.922,0.111-11.883C84.845,54.682,84.83,49.143,84.816,43.604z"/>
		<path class="st0" d="M12.6,94.901c-0.008-2.082-0.016-4.165-0.027-6.246c10.418-6.806,0.802,7.732,6.425,6.034
			c5.63,3.048,6.529-0.392,6.574-4.85c0.077-7.547,0.115-15.094,0.121-22.641c0.022-30.359,0.018-30,30.738-30.229
			c9.652-0.073,16.279,1.771,17.767,12.312c1.295,5.531-4.362,10.125-2.131,15.784c1,3.465,1.129,6.915-0.17,10.342
			c-5.195,4.323-1.505,8.45,0.277,12.62c-0.036,2.496-0.072,4.992-0.108,7.488c-1.283,3.299-2.847,6.363-6.47,7.695
			c-2.71,0.029-5.42,0.058-8.13,0.088c-12.37,0.61-24.917-2.493-37.115,1.756c-0.28,0.499-0.704,0.782-1.272,0.848
			C12.232,104.996,16.056,97.804,12.6,94.901z"/>
		<path class="st0" d="M51.715,136.317c-3.053,0.023-6.107,0.046-9.157,0.072c-7.374-3.089-14.749-3.089-22.122,0.017
			c-1.964-0.092-3.927-0.184-5.891-0.271c-0.28-24.103-0.28-24.103,24.284-24.478c0.465-0.007,0.93-0.036,1.395-0.055
			c3.724,0.021,7.447,0.042,11.171,0.063c11.828-1.998,21.515,1.353,28.517,11.414h0.003c-1.608,11.674-6.23,14.355-16.177,9.327
			c-2.45-1.238-4.818-2.64-7.217-3.963c-0.068-1.402-0.103-2.81-0.224-4.21c-0.589-6.797-5.375-6.775-10.28-6.069
			c-4.121,0.594-5.465,3.57-4.459,7.239c1.362,4.965,5.051,6.451,9.834,5.207c1.792-0.466,3.459-1.414,5.183-2.142
			C57.703,132.784,54.02,134.124,51.715,136.317z"/>
		<path class="st0" d="M12.434,37.896c0.023-2.083,0.046-4.166,0.067-6.247c2.902-7.406,0.591-18.399,13.168-19.159
			c6.71,0.03,13.42,0.059,20.13,0.087c-0.031,1.53-0.062,3.062-0.093,4.594c-2.524,1.382-10.303,1.695-5.802,4.824
			c4.839,3.364,15.075,6.78,19.757-3.873c2.988-4.033,7.403-3.326,11.458-3.145c3.88,0.173,8.963-1.73,10.851,3.558
			c1.893,5.3-1.084,8.783-5.727,11.059c-14.644,0.005-29.312,0.491-43.933-0.138c-10.487-0.451-15.84,1.84-14.605,14.008
			c1.138,11.214,0.062,22.652-0.039,33.992c-7.185-6.218,0.071-15.751-5.147-22.42c0.006-2.098,0.012-4.197,0.016-6.294
			C15.235,45.104,15.207,41.488,12.434,37.896z"/>
		<path class="st0" d="M84.769,105.737c0.024,2.06,0.048,4.121,0.073,6.18c-3.528,2.887-0.482,8.677-4.927,11.162h-0.003
			c-0.042-13.38-0.084-26.76-0.127-40.141c0.004-1.73,0.008-3.461,0.012-5.191c-0.005-12.499-0.01-24.997-0.014-37.496
			c-0.218-0.784-0.222-1.569-0.013-2.355c0.374-1.274,0.749-2.547,1.123-3.821c1.303,1.136,2.607,2.271,3.91,3.406
			c0.004,2.041,0.008,4.082,0.014,6.122c-3.142,5.546-3.143,11.086,0.042,16.619c-0.037,3.961-0.074,7.922-0.109,11.882
			C81.52,83.315,81.508,94.527,84.769,105.737z"/>
		<path class="st2" d="M84.803,37.481c-1.303-1.136-2.607-2.271-3.91-3.406c-0.374,1.274-0.749,2.547-1.122,3.82
			c-1.177-2.766-2.355-5.531-3.533-8.296c4.647-2.279,7.624-5.763,5.731-11.063c-1.888-5.288-6.971-3.385-10.851-3.558
			c-4.054-0.18-8.47-0.887-11.455,3.144c-4.651-0.317-9.304-0.634-13.958-0.95c0.031-1.532,0.062-3.064,0.093-4.594
			c9.25-0.312,18.741,0.567,27.691-1.237c11.643-2.347,12.801,3.177,11.958,12.088C85.007,28.091,85.004,32.796,84.803,37.481z"/>
		<path class="st2" d="M79.915,123.078c4.444-2.484,1.398-8.275,4.927-11.162c1.761,25.801,1.76,25.825-23.346,25.251
			c-3.266-0.075-6.524-0.553-9.783-0.847c2.307-2.196,5.99-3.536,4.862-7.854l-0.06-0.026c2.406,1.326,4.773,2.727,7.223,3.966
			C73.685,137.433,78.307,134.752,79.915,123.078z"/>
		<path class="st2" d="M40.224,111.602c-0.465,0.019-0.93,0.047-1.395,0.055c-24.564,0.376-24.564,0.375-24.284,24.478
			c-5.825-13.504-1.735-27.472-1.947-41.235c3.459,2.904-0.366,10.097,6.488,11.002C24.551,113.677,33.929,106.924,40.224,111.602z"
			/>
		<path class="st2" d="M12.518,55.037c5.218,6.669-2.038,16.202,5.146,22.42c3.41,5.514,1.732,11.423,1.334,17.232
			c-5.623,1.698,3.993-12.84-6.425-6.034C12.556,77.448,12.537,66.242,12.518,55.037z"/>
		<path class="st2" d="M84.769,105.737c-3.261-11.21-3.249-22.421-0.019-33.633C84.755,83.315,84.762,94.526,84.769,105.737z"/>
		<path class="st2" d="M25.668,12.491c-12.576,0.76-10.265,11.752-13.168,19.159C12.642,22.342,6.203,8.515,25.668,12.491z"/>
		<path class="st2" d="M20.436,136.405c7.373-3.106,14.748-3.106,22.122-0.017C35.183,137.687,27.81,137.594,20.436,136.405z"/>
		<path class="st2" d="M84.859,60.221c-3.185-5.532-3.184-11.072-0.042-16.619C84.83,49.143,84.845,54.682,84.859,60.221z"/>
		<path class="st2" d="M12.434,37.896c2.773,3.592,2.801,7.207,0.1,10.847C12.502,45.126,12.468,41.511,12.434,37.896z"/>
		<path class="st1" d="M18.998,94.689c0.398-5.809,2.076-11.718-1.334-17.232c0.102-11.34,1.178-22.778,0.04-33.992
			c-1.235-12.167,4.118-14.459,14.605-14.008c14.621,0.63,29.289,0.144,43.933,0.138c1.173,2.768,2.351,5.533,3.529,8.299
			c-0.211,0.787-0.206,1.572,0.013,2.357c-2.647,2.526-1.146,7.616-5.586,9.032C72.711,38.74,66.083,36.897,56.432,36.97
			c-30.72,0.229-30.716-0.13-30.738,30.229c-0.006,7.547-0.044,15.094-0.121,22.641C25.527,94.297,24.628,97.737,18.998,94.689z"/>
		<path class="st1" d="M40.224,111.602c-6.295-4.677-15.673,2.075-21.138-5.7c0.563-0.066,0.987-0.349,1.26-0.841
			c12.363-0.733,24.904,2.152,37.121-1.762c2.71-0.029,5.42-0.058,8.13-0.088c9.822,3.88,8.066-1.975,6.47-7.695
			c0.036-2.496,0.072-4.992,0.116-7.48c1.734-4.246,1.52-8.455-0.285-12.627c1.299-3.427,1.17-6.878,0.179-10.332
			c1.814-1.391,3.502-7.49,5.599-0.323c1.23,4.203-0.813,9.011,2.122,12.993c-0.004,1.73-0.008,3.461-0.011,5.193
			c1.547,20.459-7.831,30.118-28.391,28.725C47.671,111.644,43.947,111.622,40.224,111.602z"/>
		<path class="st2" d="M79.797,77.746c-2.935-3.982-0.892-8.79-2.122-12.993c-2.098-7.167-3.785-1.068-5.599,0.323
			c-2.24-5.669,3.418-10.263,2.122-15.794c4.439-1.414,2.939-6.505,5.585-9.03C79.788,52.749,79.793,65.248,79.797,77.746z"/>
		<path class="st2" d="M57.467,103.297c-12.217,3.914-24.759,1.03-37.121,1.763C32.55,100.805,45.096,103.907,57.467,103.297z"/>
		<path class="st2" d="M71.897,75.408c1.805,4.172,2.019,8.381,0.285,12.627C70.392,83.858,66.703,79.731,71.897,75.408z"/>
		<path class="st2" d="M72.067,95.515c1.596,5.72,3.352,11.574-6.47,7.694C69.22,101.879,70.783,98.815,72.067,95.515z"/>
		<path class="st1" d="M56.575,128.466c-1.724,0.728-3.391,1.676-5.183,2.142c-4.783,1.244-8.472-0.242-9.834-5.207
			c-1.006-3.669,0.338-6.645,4.459-7.239c4.904-0.706,9.691-0.727,10.28,6.069c0.121,1.4,0.156,2.808,0.224,4.21
			C56.515,128.439,56.575,128.466,56.575,128.466z"/>
		<path class="st2" d="M51.395,111.664c20.56,1.393,29.938-8.266,28.391-28.725c0.042,13.378,0.084,26.759,0.126,40.139
			C72.91,113.017,63.223,109.666,51.395,111.664z"/>
		<path class="st1" d="M45.705,17.172c4.653,0.316,9.307,0.633,13.958,0.95c-4.685,10.654-14.921,7.238-19.76,3.875
			C35.402,18.867,43.181,18.554,45.705,17.172z"/>
	</g>
	<g>
		<path class="st0" d="M49.854,95.013c2.797,0,5.595,0.041,8.392-0.008c9.092-0.16,15.405-5.466,16.331-14.445
			c0.759-7.353,0.793-14.813-0.078-22.163c-0.952-8.034-7.38-13.851-15.178-14.106c-6.082-0.199-12.182-0.259-18.26-0.02
			c-10.169,0.4-16.741,7.325-16.848,17.464c-0.057,5.43-0.118,10.863,0.027,16.29c0.273,10.233,7.071,16.878,17.222,16.994
			C44.259,95.053,47.056,95.026,49.854,95.013z"/>
		<path class="st1" d="M49.854,95.02c-2.797,0.006-5.595,0.033-8.392,0.001c-10.151-0.116-16.948-6.761-17.222-16.994
			c-0.145-5.426-0.084-10.86-0.027-16.29c0.106-10.139,6.679-17.064,16.848-17.464c6.078-0.239,12.179-0.179,18.26,0.02
			c7.798,0.255,14.226,6.071,15.178,14.106c0.871,7.35,0.837,14.81,0.078,22.163c-0.927,8.979-7.24,14.285-16.331,14.445
			C55.449,95.055,52.651,95.013,49.854,95.02z M33.763,50.785c-4.597,1.714-5.607,5.785-5.835,9.872
			c-0.337,6.055-0.258,12.149-0.033,18.214c0.268,7.245,5.36,12.211,12.594,12.398c6.234,0.161,12.479,0.169,18.713,0.012
			c6.633-0.167,11.952-5.681,12.065-12.394c0.1-5.908,0.12-11.822-0.024-17.729c-0.181-7.442-5.654-13.252-12.901-13.255
			c-5.91-0.003-11.823-0.092-17.729,0.082c-2.552,0.075-5.301,0.207-6.897,2.844L33.763,50.785z"/>
		<path class="st2" d="M33.718,50.829c1.596-2.638,4.345-2.77,6.897-2.844c5.905-0.173,11.819-0.085,17.729-0.082
			c7.247,0.004,12.719,5.813,12.901,13.255c0.144,5.906,0.124,11.821,0.024,17.729c-0.114,6.713-5.432,12.227-12.065,12.394
			c-6.234,0.157-12.479,0.149-18.713-0.012c-7.234-0.186-12.326-5.153-12.594-12.398c-0.224-6.065-0.304-12.16,0.033-18.214
			c0.227-4.086,1.237-8.157,5.835-9.872c-0.977,3.712-4.62,6.355-3.973,10.791c0.551,3.773-0.427,7.755,1.168,11.411
			c1.486-3.588,0.777-7.21,1.001-10.778c0.444-7.061,3.178-9.81,10.182-9.669c7.899,0.158,15.885-1.21,23.777,1.18
			c-1.905-3.146-4.891-3.851-8.201-3.81C49.71,50.01,41.675,49.408,33.718,50.829z M68.936,58.503
			c-2.371,1.986-1.717,3.721-1.751,5.232c-0.101,4.592-0.016,9.187-0.095,13.78c-0.045,2.645-0.394,5.202-2.547,7.169
			c-4.177,3.814-25.854,3.642-30.129-0.071c-1.863-1.618-1.478-4.61-3.946-5.925c-0.164,6.124,3.43,10.423,9.069,10.6
			c6.556,0.206,13.126,0.159,19.686,0.027c5.091-0.102,9.174-3.102,9.567-8.126C69.359,73.925,68.936,66.584,68.936,58.503z
			 M41.763,69.034c0,2.302-0.053,4.606,0.015,6.907c0.064,2.163,1.073,3.058,3.194,2.012c4.422-2.181,8.853-4.343,13.238-6.597
			c2.425-1.247,1.567-2.473-0.263-3.423c-2.617-1.359-5.274-2.643-7.93-3.927C42.014,60.136,41.64,57.965,41.763,69.034z"/>
		<path class="st1" d="M68.936,58.503c0,8.081,0.423,15.422-0.145,22.686c-0.393,5.024-4.475,8.024-9.567,8.126
			c-6.56,0.132-13.13,0.179-19.686-0.027c-5.639-0.177-9.233-4.476-9.069-10.6c2.468,1.315,2.083,4.307,3.946,5.925
			c4.275,3.712,25.952,3.884,30.129,0.071c2.154-1.966,2.502-4.524,2.547-7.169c0.079-4.593-0.006-9.188,0.095-13.78
			C67.219,62.224,66.566,60.489,68.936,58.503z"/>
		<path class="st1" d="M41.762,69.034c-0.121-11.069,0.252-8.898,8.255-5.028c2.655,1.284,5.312,2.568,7.93,3.927
			c1.83,0.95,2.689,2.176,0.263,3.423c-4.384,2.254-8.816,4.416-13.238,6.597c-2.121,1.046-3.13,0.151-3.194-2.012
			C41.71,73.64,41.763,71.336,41.762,69.034z M44.375,75.305c1.914-0.908,2.99-1.297,3.936-1.893
			c1.983-1.249,5.773-1.051,5.703-3.72c-0.064-2.438-3.748-2.589-5.773-3.841c-2.825-1.746-4.148-0.949-3.895,2.467
			C44.502,70.417,44.375,72.536,44.375,75.305z"/>
		<path class="st1" d="M33.718,50.829c7.957-1.421,15.992-0.819,23.999-0.918c3.31-0.041,6.296,0.664,8.201,3.81
			c-7.892-2.39-15.878-1.022-23.777-1.18c-7.003-0.14-9.738,2.608-10.182,9.669c-0.224,3.569,0.485,7.19-1.001,10.778
			c-1.595-3.656-0.617-7.638-1.168-11.411c-0.647-4.436,2.996-7.079,3.973-10.791L33.718,50.829z"/>
		<path class="st2" d="M44.375,75.305c0-2.769,0.127-4.888-0.029-6.986c-0.253-3.416,1.07-4.213,3.895-2.467
			c2.025,1.251,5.709,1.403,5.773,3.841c0.07,2.669-3.72,2.47-5.703,3.72C47.366,74.008,46.29,74.397,44.375,75.305z"/>
	</g>
</g>
</svg>
