<?xml version="1.0" encoding="utf-8"?>
<!-- Generator: Adobe Illustrator 20.0.0, SVG Export Plug-In . SVG Version: 6.00 Build 0)  -->
<svg version="1.1" id="Layer_1" xmlns="http://www.w3.org/2000/svg" xmlns:xlink="http://www.w3.org/1999/xlink" x="0px" y="0px"
	 viewBox="0 0 49.667 47.479" style="enable-background:new 0 0 49.667 47.479;" xml:space="preserve">
<style type="text/css">
	.st0{fill:#EF868B;}
	.st1{fill:#F7F7F7;}
</style>
<g id="pfeil">
	<path class="st0" d="M456.877,253.39c-0.441-4.923-6.263-6.359-5.247-12.231c0.222,0.232,0.476,0.307,0.757,0.221
		c4.6,5.405,7.9,12.447,13.647,16.418c0.959,1.241,1.918,2.483,2.877,3.724c1.975,6.212,3.565,2.883,5.159-0.314
		c0.952-1.056,1.904-2.113,2.856-3.162c2.205-1.023,3.714-2.932,4.654-5.56c1.744-0.873,2.998-2.415,3.952-4.359
		c1.158,0.242,4.044-1.6,2.08,2.452c-1.152,2.376-3.676,3.498-4.149,6.567c-0.653,0.742-1.306,1.484-1.959,2.227
		c-7.161,9.511-14.077,9.324-20.743-0.787C459.466,256.854,458.171,255.122,456.877,253.39z"/>
	<path class="st0" d="M469.773,253.353c0.204-3.669,1.067-7.401-0.686-10.883c0.055-7.54,0.676-13.529,0.021-21.468
		c-0.635-7.685,4.116-4.184,4.105,14.989c-0.003,5.687-0.014,8.506-0.062,14.299C473.128,253.105,472.666,255.278,469.773,253.353z"
		/>
</g>
<g id="statistic">
	<path class="st1" d="M15.755,35.14c-0.378-0.349-0.756-0.698-1.134-1.046c0.098-3.37,1.628-6.383,4.281-7.931
		c1.948-1.136,3.842,1.505,5.681,2.623c2.144,1.303,3.645,1.088,5.16-1.254c3.14-4.854,6.656-9.463,9.962-14.212
		c0.874-1.255,1.641-2.414,3.405-2.538c1.452-0.102,3.721,1.215,4.097-1.262c0.373-2.454,0.695-5.412-1.084-7.311
		c-2.631-2.809-5.727-0.179-8.237,0.657c-2.549,0.849-0.163,2.387,0.598,3.675c0.79,1.337-0.11,2.547-1.09,3.55
		c-0.604,0.618-1.13,1.611-2.18,1.062c-1.104-0.576-0.834-1.793-0.951-2.8c-0.189-1.627-0.348-3.257-0.577-4.878
		c-0.132-0.932,0.25-2.421-1.369-2.222c-1.115,0.137-0.857,1.375-0.933,2.233c-0.403,4.549,1.216,9.022,0.24,13.649
		c-0.62,2.936-2.146,4.627-4.629,6.013c-2.235,1.247-4.078,0.848-5.647-0.797c-2.931-3.073-4.391-1.244-5.958,1.421
		c-2.037,3.464-4.269,6.814-6.443,10.197c-0.48,0.747-1.085,1.611-2.051,1.475c-1.121-0.158-1.133-1.252-1.132-2.134
		c0.015-9.11-0.145-18.227,0.22-27.324C6.084,3.535,5.5,1.524,3.578,1.369c-2.174-0.175-1.66,2.404-1.666,3.912
		C1.856,17.231,2.08,29.186,1.783,41.129c-0.108,4.324,1.795,5.622,5.476,5.585c6.97-0.071,13.952-0.529,20.906-0.25
		c4.468,0.178,9.015-0.866,13.316,0.09c4.049,0.899,6.471-0.206,6.503-4.517c0.06-8.016,0-16.034-0.018-24.051
		c-0.002-0.746-0.037-1.493-0.09-2.238c-0.045-0.636-0.314-1.162-1.012-1.245c-0.754-0.089-1.018,0.477-1.19,1.066
		c-0.364,1.251-1.266,2.674-0.957,3.739c1.959,6.753,0.357,13.616,0.879,20.399c0.1,1.295,0.627,3.108-2.05,2.906
		c-2.096-0.158-2.792-0.812-2.733-2.937c0.136-4.925,0.068-9.858-0.016-14.787c-0.025-1.479,0.499-3.269-1.359-4.285
		c-1.467,1.136-0.911,2.579-0.93,3.816c-0.074,4.861-0.026,9.725-0.066,14.587c-0.014,1.753,0.328,3.926-2.454,3.785
		c-2.366-0.12-2.215-1.983-2.126-3.663c0.023-0.443,0.217-0.88,0.226-1.322c0.11-4.962-0.399-5.5-4.38-4.985
		c-0.399,0.052-0.9-0.853-1.295,0.105c2.948,1.796,3.495,3.358,2.985,7.676c-0.163,1.374-0.478,2.319-2.057,2.277
		c-1.568-0.042-2.566-0.657-2.502-2.412c0.071-1.928,1.439-5.041-1.428-5.093c-2.197-0.039-0.925,3.189-1.136,4.946
		c-0.182,1.511-0.415,2.642-2.274,2.543c-1.655-0.088-2.405-0.997-2.456-2.574c-0.034-1.045,0.135-2.125-0.076-3.128
		c-0.261-1.235,1.089-2.808-0.398-3.648C17.488,32.622,17.137,35.11,15.755,35.14z"/>
	<path class="st1" d="M24.667,0c0,7.237,0,13.407,0,19.451C27.728,17.345,28.254,6.047,24.667,0z"/>
	<path class="st1" d="M12.383,12.451c0-2.982,0.013-5.965-0.009-8.947c-0.006-0.74-0.062-1.61-1.003-1.729
		C10.4,1.652,10.112,2.47,10.107,3.218c-0.041,6.112-0.057,12.224-0.021,18.336c0.004,0.726,0.402,1.564,1.285,1.53
		c0.978-0.037,0.997-0.961,1.004-1.686C12.402,18.416,12.386,15.433,12.383,12.451z"/>
	<path class="st1" d="M17.121,7.994c0.017,0,0.034,0,0.051,0c0,1.774-0.015,3.548,0.007,5.322c0.01,0.784,0.296,1.596,1.102,1.711
		c0.945,0.135,1.138-0.696,1.187-1.472c0.195-3.093,0.453-6.183,0.55-9.279c0.042-1.346-0.308-3.086-1.956-2.879
		c-1.437,0.18-0.826,1.954-0.919,3.051C17.044,5.621,17.121,6.811,17.121,7.994z"/>
	<path class="st0" d="M15.755,35.14c1.382-0.03,1.733-2.518,3.315-1.626c1.488,0.839,0.138,2.413,0.398,3.648
		c0.212,1.003,0.042,2.083,0.076,3.128c0.051,1.577,0.801,2.486,2.456,2.574c1.859,0.099,2.092-1.032,2.274-2.543
		c0.212-1.757-1.061-4.986,1.136-4.946c2.866,0.051,1.498,3.165,1.428,5.093c-0.064,1.755,0.934,2.37,2.502,2.412
		c1.578,0.042,1.894-0.902,2.057-2.277c0.511-4.317-0.037-5.88-2.985-7.68c0.395-0.954,0.896-0.049,1.295-0.101
		c3.981-0.515,4.49,0.023,4.38,4.985c-0.01,0.442-0.203,0.879-0.226,1.322c-0.088,1.68-0.239,3.543,2.126,3.663
		c2.783,0.141,2.44-2.032,2.454-3.785c0.04-4.862-0.008-9.726,0.066-14.587c0.019-1.237-0.537-2.68,0.93-3.816
		c1.858,1.016,1.334,2.805,1.359,4.285c0.083,4.928,0.152,9.862,0.016,14.787c-0.059,2.125,0.637,2.779,2.733,2.937
		c2.677,0.202,2.149-1.611,2.05-2.906c-0.521-6.783,1.08-13.647-0.879-20.399c-0.309-1.065,0.594-2.487,0.957-3.739
		c0.171-0.588,0.436-1.155,1.19-1.066c0.699,0.083,0.967,0.609,1.012,1.245c0.053,0.744,0.088,1.492,0.09,2.238
		c0.018,8.017,0.078,16.035,0.018,24.051c-0.032,4.312-2.454,5.417-6.503,4.517c-4.301-0.956-8.848,0.088-13.316-0.09
		c-6.954-0.278-13.935,0.18-20.906,0.25c-3.682,0.037-5.584-1.261-5.476-5.585C2.08,29.186,1.856,17.231,1.911,5.281
		c0.007-1.508-0.508-4.087,1.666-3.912C5.5,1.524,6.084,3.535,5.986,5.983C5.62,15.08,5.781,24.197,5.766,33.307
		c-0.001,0.882,0.011,1.976,1.132,2.134c0.966,0.136,1.571-0.727,2.051-1.475c2.174-3.383,4.407-6.732,6.443-10.197
		c1.567-2.665,3.027-4.494,5.958-1.421c1.569,1.645,3.413,2.044,5.647,0.797c2.483-1.386,4.009-3.077,4.629-6.013
		c0.976-4.626-0.643-9.1-0.24-13.649c0.076-0.858-0.183-2.096,0.933-2.233c1.619-0.198,1.237,1.29,1.369,2.222
		c0.229,1.621,0.388,3.252,0.577,4.878c0.117,1.007-0.153,2.224,0.951,2.8c1.051,0.548,1.576-0.444,2.18-1.062
		c0.98-1.002,1.88-2.213,1.09-3.55c-0.762-1.288-3.148-2.826-0.598-3.675c2.51-0.836,5.606-3.466,8.237-0.657
		c1.779,1.9,1.456,4.858,1.084,7.311c-0.376,2.478-2.645,1.161-4.097,1.262c-1.764,0.124-2.531,1.282-3.405,2.538
		c-3.306,4.749-6.821,9.358-9.962,14.212c-1.516,2.343-3.016,2.557-5.16,1.254c-1.839-1.118-3.733-3.759-5.681-2.623
		c-2.653,1.547-4.183,4.561-4.276,7.934c-4.039,0.698-3.947,5.113-6.435,7.248c-0.599,0.514,0.496,1.722,0.96,1.234
		c1.945-2.043,3.405,0.179,5.069,0.293c1.649,0.113,2.919-0.226,2.902-2.327C17.107,38.611,17.183,36.698,15.755,35.14z"/>
	<path class="st0" d="M24.667,0c3.588,6.047,3.061,17.345,0,19.451C24.667,13.407,24.667,7.237,24.667,0z"/>
	<path class="st0" d="M12.384,12.451c0.002,2.982,0.017,5.965-0.01,8.947c-0.007,0.725-0.026,1.649-1.004,1.686
		c-0.882,0.034-1.28-0.804-1.285-1.53c-0.036-6.112-0.02-12.224,0.021-18.336c0.005-0.748,0.293-1.567,1.264-1.443
		c0.94,0.119,0.997,0.989,1.003,1.729C12.396,6.486,12.383,9.469,12.384,12.451z"/>
	<path class="st0" d="M17.121,7.994c0-1.183-0.077-2.372,0.023-3.547c0.093-1.097-0.517-2.87,0.919-3.051
		c1.648-0.207,1.998,1.533,1.956,2.879c-0.098,3.095-0.355,6.186-0.55,9.279c-0.049,0.777-0.242,1.607-1.187,1.472
		c-0.806-0.115-1.092-0.927-1.102-1.711c-0.023-1.774-0.007-3.548-0.007-5.322C17.155,7.994,17.138,7.994,17.121,7.994z"/>
	<path class="st1" d="M15.755,35.14c1.428,1.558,1.352,3.471,1.367,5.404c0.017,2.101-1.253,2.44-2.902,2.327
		c-1.664-0.114-3.125-2.336-5.069-0.293c-0.464,0.488-1.559-0.72-0.96-1.234c2.488-2.135,2.396-6.55,6.435-7.248
		C14.999,34.443,15.377,34.791,15.755,35.14z"/>
</g>
</svg>
