<?xml version="1.0" encoding="utf-8"?>
<!-- Generator: Adobe Illustrator 20.0.0, SVG Export Plug-In . SVG Version: 6.00 Build 0)  -->
<svg version="1.1" id="Layer_1" xmlns="http://www.w3.org/2000/svg" xmlns:xlink="http://www.w3.org/1999/xlink" x="0px" y="0px"
	 viewBox="0 0 57.625 64.68" style="enable-background:new 0 0 57.625 64.68;" xml:space="preserve">
<style type="text/css">
	.st0{fill:#9DB5B2;}
	.st1{fill:#FFFFFF;}
</style>
<path class="st0" d="M55.562,64.68H2.414c-1.041,0-1.886-0.844-1.886-1.886V32.265c0-2.363,1.915-4.278,4.278-4.278h49.614
	c1.547,0,2.801,1.254,2.801,2.801v32.233C57.221,63.937,56.479,64.68,55.562,64.68z"/>
<path class="st1" d="M29.248,39.934h-0.746c-6.6,0-12,5.4-12,12v11.252c0,0.825,0.669,1.494,1.494,1.494h21.398
	c1.024,0,1.854-0.83,1.854-1.854V51.934C41.248,45.334,35.848,39.934,29.248,39.934z"/>
<path class="st0" d="M28.664,1.361c0.616-0.639,1.642-0.63,2.246,0.02L56.75,29.204c0.552,0.573,0.146,1.527-0.649,1.527H2.255
	c-0.706,0-1.066-0.847-0.576-1.355L28.664,1.361z"/>
</svg>
