<?xml version="1.0" encoding="utf-8"?>
<!-- Generator: Adobe Illustrator 20.0.0, SVG Export Plug-In . SVG Version: 6.00 Build 0)  -->
<svg version="1.1" id="Layer_1" xmlns="http://www.w3.org/2000/svg" xmlns:xlink="http://www.w3.org/1999/xlink" x="0px" y="0px"
	 viewBox="0 0 48 53.5" style="enable-background:new 0 0 48 53.5;" xml:space="preserve">
<style type="text/css">
	.st0{fill:#F7F7F7;}
	.st1{fill:#EF868B;}
	.st2{fill:#F6EFED;}
</style>
<g>
	<path class="st0" d="M20.006,14.421c-1.266,1.672-3.059,1.75-4.944,1.73c-3.496-0.038-6.992,0.006-10.488,0.043
		c-2.015,0.021-3.556,0.446-3.475,3.064c0.286,9.29,0.494,18.583,0.645,27.877c0.043,2.663,3.015,2.853,3.929,5.026
		c0.488,1.162,2.524-0.648,3.497-1.73c1.844-2.051,4.218-1.79,6.509-1.482c5.478,0.737,10.96,0.567,16.434,0.2
		c2.557-0.171,4.756-0.261,6.762,1.938c1.318,1.445,3.538,2.552,4.37-0.861c0.249-0.251,0.498-0.502,0.746-0.754
		c0.596-0.564,2.005,0.475,1.908-1.699c-0.361-8.1-0.266-16.222-0.285-24.335c-0.017-7.247,0.016-7.253-7.381-7.275
		c-4.446-0.013-8.891-0.002-14.486-0.002c4.092-4.06,7.246-6.596,9.622-9.916c0.939-1.312,2.915-2.505,1.186-4.117
		c-1.666-1.552-2.9,0.312-4.095,1.417c-6.899,6.378-6.906,6.372-13.862-0.424c-0.116-0.113-0.169-0.287-0.272-0.417
		c-0.933-1.17-2.144-1.846-3.414-0.784c-1.619,1.354-0.671,2.706,0.51,3.774c2.7,2.442,5.484,4.794,7.536,7.855
		C20.642,13.84,20.324,14.131,20.006,14.421z"/>
	<path class="st1" d="M43.245,50.227c-0.832,3.413-3.053,2.306-4.371,0.861c-2.006-2.199-4.206-2.109-6.762-1.938
		c-5.474,0.367-10.956,0.537-16.434-0.2c-2.291-0.308-4.665-0.569-6.509,1.482c-0.973,1.082-3.009,2.892-3.497,1.73
		c-0.914-2.174-3.886-2.363-3.929-5.026c-0.151-9.294-0.358-18.587-0.645-27.877c-0.081-2.619,1.46-3.043,3.475-3.064
		c3.496-0.037,6.993-0.081,10.488-0.043c1.885,0.02,3.678-0.058,4.947-1.736c0.195,1.217,1.112,2.031,2.001,1.218
		c1.181-1.079-0.404-1.506-1.051-2.083c-2.052-3.061-4.836-5.413-7.536-7.855c-1.181-1.068-2.128-2.42-0.51-3.774
		c1.27-1.062,2.481-0.385,3.414,0.784c0.103,0.129,0.156,0.303,0.272,0.417c6.956,6.795,6.962,6.802,13.862,0.424
		c1.195-1.105,2.429-2.969,4.095-1.417c1.729,1.611-0.247,2.804-1.186,4.117c-2.376,3.32-5.529,5.856-9.622,9.916
		c5.595,0,10.041-0.011,14.486,0.002c7.397,0.022,7.364,0.028,7.381,7.275c0.019,8.114-0.076,16.235,0.285,24.335
		c0.097,2.174-1.311,1.135-1.91,1.703c-0.267-0.136-0.639-0.462-0.779-0.382C42.621,49.432,42.898,49.854,43.245,50.227z
		 M24.071,19.872c-5.326,0-10.653,0.019-15.979-0.01c-1.839-0.01-3.307,0.215-3.286,2.61c0.06,6.65,0.003,13.3,0.073,19.95
		c0.023,2.212,1.105,3.138,3.518,2.987c3.117-0.194,6.266,0.198,9.401,0.182c6.983-0.034,13.966-0.146,20.948-0.265
		c2.565-0.044,3.825-1.115,3.726-3.991c-0.207-5.985-0.184-11.984-0.034-17.971c0.065-2.583-0.76-3.596-3.388-3.528
		C34.06,19.966,29.065,19.873,24.071,19.872z"/>
	<path class="st2" d="M24.071,19.873c4.993,0,9.989,0.093,14.979-0.037c2.629-0.068,3.453,0.945,3.388,3.528
		c-0.15,5.988-0.173,11.987,0.034,17.971c0.099,2.876-1.161,3.947-3.726,3.991c-6.982,0.119-13.965,0.231-20.948,0.265
		c-3.135,0.016-6.283-0.377-9.401-0.182c-2.414,0.151-3.495-0.776-3.518-2.987c-0.07-6.649-0.013-13.3-0.073-19.95
		c-0.021-2.395,1.447-2.621,3.286-2.61C13.419,19.891,18.745,19.872,24.071,19.873z M8.58,38.656c1.688-3.99,1.12-6.672,1.137-9.264
		c0.021-3.282,1.118-4.892,4.685-4.645c3.463,0.239,6.956,0.04,10.436,0.01c2.874-0.025,6.047-0.756,7.127,3.537
		c0.397-2.797,2.582-6.103-2.404-6.186c-6.13-0.102-12.263,0.01-18.395,0.031c-1.586,0.006-3.31,0.301-3.385,2.142
		C7.606,28.594,7.048,32.972,8.58,38.656z M8.252,40.638c0.021,0.71,0.043,1.42,0.064,2.13c7.271,0,14.542,0.007,21.812-0.008
		c1.02-0.002,2.258-0.142,2.337-1.358c0.21-3.253,0.916-6.593-0.439-9.765c-1.223,0.386-1.31,1.054-1.382,1.717
		c-0.793,7.288-0.792,7.287-8.37,7.284C17.6,40.636,12.926,40.638,8.252,40.638z M37.779,28.852c1.474-0.422,2.845-1.086,2.885-3.16
		c0.035-1.807-0.816-2.809-2.603-2.835c-1.808-0.026-3.288,0.631-3.455,2.679C34.439,27.557,35.737,28.438,37.779,28.852z"/>
	<path class="st0" d="M20.959,13.55c0.647,0.577,2.232,1.004,1.051,2.083c-0.889,0.813-1.806,0-2.001-1.218
		C20.324,14.131,20.642,13.84,20.959,13.55z"/>
	<path class="st0" d="M43.245,50.227c-0.347-0.373-0.624-0.795-0.035-1.133c0.14-0.08,0.512,0.246,0.779,0.382
		C43.743,49.725,43.494,49.976,43.245,50.227z"/>
	<path class="st1" d="M8.58,38.656c-1.532-5.684-0.974-10.061-0.799-14.375c0.075-1.841,1.799-2.136,3.385-2.142
		c6.132-0.022,12.265-0.134,18.395-0.031c4.986,0.083,2.801,3.389,2.404,6.186c-1.08-4.293-4.253-3.562-7.127-3.537
		c-3.48,0.031-6.974,0.229-10.436-0.01c-3.567-0.247-4.663,1.363-4.685,4.645C9.701,31.984,10.269,34.666,8.58,38.656z"/>
	<path class="st1" d="M8.252,40.638c4.674,0,9.348-0.001,14.022,0c7.578,0.002,7.577,0.003,8.37-7.284
		c0.072-0.663,0.159-1.331,1.382-1.717c1.355,3.173,0.648,6.512,0.439,9.765c-0.078,1.216-1.317,1.356-2.337,1.358
		c-7.271,0.015-14.542,0.008-21.812,0.008C8.295,42.058,8.273,41.348,8.252,40.638z"/>
	<path class="st1" d="M37.779,28.852c-2.042-0.414-3.339-1.295-3.174-3.316c0.168-2.048,1.648-2.706,3.455-2.679
		c1.787,0.026,2.638,1.028,2.603,2.835C40.624,27.766,39.252,28.43,37.779,28.852z"/>
</g>
</svg>
